<svg width="97" height="36" viewBox="0 0 97 36" fill="none" xmlns="http://www.w3.org/2000/svg">
<path d="M30.6721 18.9561V13.406C30.6721 7.17073 33.604 4.12451 39.4334 4.12451C44.8351 4.12451 47.8981 6.72256 48.098 11.7628H43.3863C43.2208 9.60315 42.0687 8.5412 39.5646 8.5412C36.6983 8.5412 35.6117 9.97987 35.6117 13.6821V18.6833C35.6117 22.3466 36.7669 23.821 39.6957 23.821C42.4652 23.821 43.583 22.4862 43.583 19.0601H39.8955V14.6564H48.2947V19.0601C48.2947 25.2954 45.4845 28.2409 39.5989 28.2409C33.5697 28.2409 30.6721 25.1915 30.6721 18.9561Z" fill="#13191A"/>
<path d="M52.4087 4.53369H61.4011C66.6716 4.53369 68.9759 6.41728 68.9759 10.5969C68.9759 13.1657 68.086 14.7765 65.9129 15.5657V15.6306C68.6137 16.4198 69.7003 18.2287 69.7003 21.2846C69.7003 25.8052 67.3304 27.8252 62.0911 27.8252H52.4118L52.4087 4.53369ZM60.6423 13.8185C63.2432 13.8185 64.1019 13.2014 64.1019 11.3179C64.1019 9.43426 63.3119 8.88543 60.9077 8.88543H57.3482V13.8185H60.6423ZM61.2356 23.48C63.8708 23.48 64.7607 22.8305 64.7607 20.8819C64.7607 18.8619 63.7709 18.1767 60.839 18.1767H57.3482V23.48H61.2356Z" fill="#13191A"/>
<path d="M79.2201 4.53369H84.3251L91.8344 27.8285H86.5982L85.1807 23.1357H78.1335L76.716 27.8285H71.7202L79.2201 4.53369ZM83.963 18.8554L81.6711 10.3566L79.3669 18.8554H83.963Z" fill="#13191A"/>
<path d="M30.8254 31.2729H31.6829L32.239 33.9242L32.8812 31.2729H33.6195L34.2584 33.9242L34.8179 31.2729H35.6356L34.7086 35.1845H33.8512L33.2421 32.6571L32.6263 35.1845H31.7524L30.8254 31.2729Z" fill="#13191A"/>
<path d="M36.0759 31.2729H38.6514V32.0132H36.9035V32.8258H38.3767V33.5627H36.9035V34.4407H38.7077V35.1845H36.0593L36.0759 31.2729Z" fill="#13191A"/>
<path d="M39.1016 34.0035H39.9093C39.9093 34.3857 40.1146 34.5509 40.5151 34.5509C40.9157 34.5509 41.0647 34.4132 41.0647 34.1309C41.0647 33.8485 40.866 33.6695 40.3066 33.5799C39.4723 33.4422 39.1545 33.1185 39.1545 32.4058C39.1545 31.607 39.6246 31.2041 40.5218 31.2041C41.4189 31.2041 41.846 31.5932 41.846 32.4161H41.0349C41.0349 32.0718 40.866 31.91 40.5052 31.91C40.1444 31.91 39.9855 32.0615 39.9855 32.3197C39.9855 32.578 40.1808 32.7432 40.7105 32.8259C41.591 32.9567 41.8956 33.3079 41.8956 34.0448C41.8956 34.8574 41.4355 35.2533 40.4953 35.2533C39.5551 35.2533 39.1016 34.8608 39.1016 34.0035Z" fill="#13191A"/>
<path d="M43.1006 32.027H42.1074V31.2729H44.9511V32.027H43.9414V35.1845H43.1138L43.1006 32.027Z" fill="#13191A"/>
<path d="M45.3716 31.2729H47.9504V32.0132H46.2025V32.8258H47.6889V33.5627H46.2191V34.4407H48.02V35.1845H45.3716V31.2729Z" fill="#13191A"/>
<path d="M48.6323 31.2729H49.4633V34.4304H51.049V35.1845H48.6323V31.2729Z" fill="#13191A"/>
<path d="M51.4992 31.2729H52.3235V35.1845H51.4958L51.4992 31.2729Z" fill="#13191A"/>
<path d="M52.8269 33.8795V33.7693H53.6214V33.8795C53.6214 34.3202 53.7671 34.5096 54.1246 34.5096C54.4821 34.5096 54.6344 34.3099 54.6344 33.845V31.2729H55.4654V33.8795C55.4654 34.8333 55.0615 35.2568 54.1412 35.2568C53.2209 35.2568 52.8269 34.8401 52.8269 33.8795Z" fill="#13191A"/>
<path d="M56.2168 31.2729H57.0477V32.9946L58.3256 31.2729H59.2757L58.064 32.8775L59.2922 35.1845H58.3454L57.4913 33.5627L57.0477 34.1481V35.181H56.2168V31.2729Z" fill="#13191A"/>
<path d="M60.9871 31.2729H61.8147V32.819H63.1091V31.2729H63.94V35.1845H63.1091V33.5661H61.8147V35.1845H60.9871V31.2729Z" fill="#13191A"/>
<path d="M65.6282 31.2729H66.4857L67.7469 35.1845H66.8664L66.628 34.396H65.4462L65.2078 35.1845H64.3669L65.6282 31.2729ZM66.4228 33.6832L66.0387 32.2577L65.6514 33.6832H66.4228Z" fill="#13191A"/>
<path d="M67.552 31.2729H68.426L69.2006 34.0551L69.9687 31.2729H70.8062L69.6111 35.1845H68.7471L67.552 31.2729Z" fill="#13191A"/>
<path d="M71.223 31.2729H73.7985V32.0132H72.0506V32.8258H73.5105V33.5627H72.0373V34.4407H73.8415V35.1845H71.2097L71.223 31.2729Z" fill="#13191A"/>
<path d="M74.4673 31.2729H75.3479L76.6257 33.7417V31.2729H77.4103V35.1845H76.6191L75.2552 32.5504V35.1845H74.4673V31.2729Z" fill="#13191A"/>
<path d="M78.1089 33.6936V32.7604C78.1089 31.7275 78.6021 31.2041 79.5821 31.2041C80.4891 31.2041 81.0022 31.6414 81.0354 32.485H80.2441C80.2177 32.1407 80.0223 31.9444 79.6019 31.9444C79.1219 31.9444 78.9398 32.1854 78.9398 32.8087V33.6591C78.9398 34.2755 79.1318 34.5199 79.6251 34.5199C80.1183 34.5199 80.2872 34.2961 80.2872 33.7211H79.6681V32.9705H81.0784V33.7108C81.0784 34.7438 80.6083 35.2533 79.6185 35.2533C78.6286 35.2533 78.1089 34.7403 78.1089 33.6936Z" fill="#13191A"/>
<path d="M81.754 31.2729H84.3328V32.0132H82.5849V32.8258H84.0581V33.5627H82.5849V34.4407H84.3891V35.1845H81.7407L81.754 31.2729Z" fill="#13191A"/>
<path d="M85.0015 31.2729H86.5143C87.3982 31.2729 87.7856 31.5897 87.7856 32.3059C87.8327 32.6774 87.6162 33.0304 87.2725 33.1426C87.6899 33.2389 87.9665 33.6524 87.9081 34.093C87.9081 34.8505 87.5075 35.1914 86.6302 35.1914H85.0015V31.2729ZM86.3852 32.8327C86.8222 32.8327 86.9679 32.726 86.9679 32.4127C86.9679 32.0993 86.8322 32.0029 86.4316 32.0029H85.8324V32.8327H86.3852ZM86.4846 34.4545C86.9282 34.4545 87.0771 34.3443 87.0771 34.0172C87.0771 33.6901 86.9116 33.5627 86.415 33.5627H85.8291V34.4545H86.4846Z" fill="#13191A"/>
<path d="M88.5337 31.2729H89.3613V35.1845H88.5337V31.2729Z" fill="#13191A"/>
<path d="M90.1924 31.2729H92.7679V32.0132H91.02V32.8258H92.4932V33.5627H91.02V34.4407H92.8242V35.1845H90.1924V31.2729Z" fill="#13191A"/>
<path d="M93.4397 31.2729H94.84C95.8497 31.2729 96.3 31.755 96.3 32.8155V33.6591C96.3 34.7231 95.8497 35.2017 94.84 35.2017H93.4397V31.2729ZM94.7209 34.4476C95.2803 34.4476 95.469 34.2341 95.469 33.6247V32.8327C95.469 32.2198 95.2803 32.0098 94.7209 32.0098H94.2673V34.4476H94.7209Z" fill="#13191A"/>
<path d="M12.3678 0.743652C12.3678 0.743652 12.087 6.7166 9.78724 9.26501C6.90589 12.4531 6.13708 7.95777 6.13708 7.95777C3.06186 12.2167 0 17.835 0 23.3282C0.0013994 27.6785 2.11663 31.7333 5.62232 34.1059V23.9018L11.141 27.7262V23.9018L16.6597 27.7262V19.2639H19.1132V34.1129C22.6202 31.741 24.7367 27.6861 24.7389 23.3351C24.7389 12.2897 12.3678 0.743652 12.3678 0.743652Z" fill="#D75633"/>
</svg>
